<!DOCTYPE svg PUBLIC "-//W3C//DTD SVG 1.1//EN" "http://www.w3.org/Graphics/SVG/1.1/DTD/svg11.dtd">
<!-- Uploaded to: SVG Repo, www.svgrepo.com, Transformed by: SVG Repo Mixer Tools -->
<svg version="1.1" id="Layer_1" xmlns="http://www.w3.org/2000/svg" xmlns:xlink="http://www.w3.org/1999/xlink" viewBox="0 0 512 512" xml:space="preserve" width="64px" height="64px" fill="#000000">
<g id="SVGRepo_bgCarrier" stroke-width="0"/>
<g id="SVGRepo_tracerCarrier" stroke-linecap="round" stroke-linejoin="round"/>
<g id="SVGRepo_iconCarrier"> <g> <path style="fill:#666666;" d="M512,174.84L512,174.84c0,9.391-7.613,17.004-17.004,17.004h-56.398v-34.007h56.398 C504.387,157.836,512,165.449,512,174.84z"/> <path style="fill:#666666;" d="M438.598,157.836v34.007H378.63v122.955c-17.509-17.346-41.589-28.074-68.188-28.074 c-20.191,0-38.93,6.188-54.442,16.754c-15.523-10.566-34.263-16.754-54.453-16.754c-13.654,0-26.646,2.833-38.431,7.942 c-11.158,4.83-21.224,11.692-29.746,20.133V191.843H16.998C7.616,191.843,0,184.227,0,174.834c0-9.381,7.616-16.998,16.998-16.998 L438.598,157.836L438.598,157.836z"/> </g> <path style="fill:#4D4D4D;" d="M54.569,174.84L54.569,174.84c0-9.391,7.613-17.004,17.004-17.004H17.004 C7.613,157.836,0,165.449,0,174.84l0,0c0,9.391,7.613,17.004,17.004,17.004h54.569C62.182,191.843,54.569,184.23,54.569,174.84z"/> <rect x="429.891" y="152.861" style="fill:#F95428;" width="17.416" height="139.14"/> <g> <polygon style="fill:#F7B239;" points="438.598,313.486 464.954,359.139 412.243,359.139 "/> <path style="fill:#F7B239;" d="M438.598,283.288c11.866,0,21.479,9.625,21.479,21.491c0,11.854-9.613,21.479-21.479,21.479 s-21.479-9.625-21.479-21.479C417.119,292.913,426.732,283.288,438.598,283.288z"/> </g> <path style="fill:#4D4D4D;" d="M378.63,191.843H163.116H133.37v20.632v102.323c8.522-8.441,18.588-15.303,29.746-20.133v-90.318 H378.63V191.843z"/> </g>
</svg>